<svg width="19" height="19" viewBox="0 0 19 19" fill="none" xmlns="http://www.w3.org/2000/svg">
<path d="M15.6021 1.58331H3.39781C2.39715 1.58331 1.58331 2.39715 1.58331 3.39781V15.6021C1.58331 16.6028 2.39715 17.4166 3.39781 17.4166H15.6021C16.6028 17.4166 17.4166 16.6028 17.4166 15.6021V3.39781C17.4166 2.39715 16.6028 1.58331 15.6021 1.58331ZM16.2291 15.6021C16.2291 15.9481 15.9481 16.2291 15.6021 16.2291H3.39781C3.05185 16.2291 2.77081 15.9481 2.77081 15.6021V5.0809C2.77081 4.73494 3.05106 4.45548 3.39623 4.4539H15.6037C15.9489 4.4539 16.2291 4.73494 16.2291 5.07931V15.6037V15.6021Z" fill="#5B7083"/>
<path d="M5.56704 7.94431C6.12887 7.94431 6.58433 7.48886 6.58433 6.92702C6.58433 6.36519 6.12887 5.90973 5.56704 5.90973C5.0052 5.90973 4.54974 6.36519 4.54974 6.92702C4.54974 7.48886 5.0052 7.94431 5.56704 7.94431Z" fill="#5B7083"/>
<path d="M5.56704 11.4323C6.12887 11.4323 6.58433 10.9769 6.58433 10.4151C6.58433 9.85322 6.12887 9.39777 5.56704 9.39777C5.0052 9.39777 4.54974 9.85322 4.54974 10.4151C4.54974 10.9769 5.0052 11.4323 5.56704 11.4323Z" fill="#5B7083"/>
<path d="M13.433 7.94431C13.9948 7.94431 14.4503 7.48886 14.4503 6.92702C14.4503 6.36519 13.9948 5.90973 13.433 5.90973C12.8712 5.90973 12.4157 6.36519 12.4157 6.92702C12.4157 7.48886 12.8712 7.94431 13.433 7.94431Z" fill="#5B7083"/>
<path d="M13.433 11.4323C13.9948 11.4323 14.4503 10.9769 14.4503 10.4151C14.4503 9.85322 13.9948 9.39777 13.433 9.39777C12.8712 9.39777 12.4157 9.85322 12.4157 10.4151C12.4157 10.9769 12.8712 11.4323 13.433 11.4323Z" fill="#5B7083"/>
<path d="M9.50002 7.94431C10.0619 7.94431 10.5173 7.48886 10.5173 6.92702C10.5173 6.36519 10.0619 5.90973 9.50002 5.90973C8.93818 5.90973 8.48273 6.36519 8.48273 6.92702C8.48273 7.48886 8.93818 7.94431 9.50002 7.94431Z" fill="#5B7083"/>
<path d="M9.50002 11.4323C10.0619 11.4323 10.5173 10.9769 10.5173 10.4151C10.5173 9.85322 10.0619 9.39777 9.50002 9.39777C8.93818 9.39777 8.48273 9.85322 8.48273 10.4151C8.48273 10.9769 8.93818 11.4323 9.50002 11.4323Z" fill="#5B7083"/>
<path d="M5.56704 14.8603C6.12887 14.8603 6.58433 14.4049 6.58433 13.843C6.58433 13.2812 6.12887 12.8257 5.56704 12.8257C5.0052 12.8257 4.54974 13.2812 4.54974 13.843C4.54974 14.4049 5.0052 14.8603 5.56704 14.8603Z" fill="#5B7083"/>
<path d="M9.50002 14.8603C10.0619 14.8603 10.5173 14.4049 10.5173 13.843C10.5173 13.2812 10.0619 12.8257 9.50002 12.8257C8.93818 12.8257 8.48273 13.2812 8.48273 13.843C8.48273 14.4049 8.93818 14.8603 9.50002 14.8603Z" fill="#5B7083"/>
</svg>
