<svg width="30" height="30" viewBox="0 0 30 30" fill="none" xmlns="http://www.w3.org/2000/svg">
<path d="M28.225 9.18744L15.5938 2.37119C15.2225 2.17119 14.7763 2.17119 14.4063 2.37119L1.78126 9.18744C1.17376 9.51744 0.947508 10.2749 1.27501 10.8824C1.50001 11.3012 1.93126 11.5387 2.37501 11.5387C2.57501 11.5387 2.78001 11.4912 2.96876 11.3887L3.88626 10.8937L5.87376 24.9562C6.14376 26.4737 7.51126 27.5337 9.19876 27.5337H20.8013C22.4888 27.5337 23.8563 26.4737 24.1288 24.9237L26.1138 10.8924L27.035 11.3899C27.6413 11.7187 28.4 11.4924 28.7275 10.8849C29.0563 10.2774 28.8275 9.51869 28.2225 9.19119L28.225 9.18744ZM15 19.2937C12.7563 19.2937 10.9375 17.4749 10.9375 15.2312C10.9375 12.9874 12.7563 11.1687 15 11.1687C17.2438 11.1687 19.0625 12.9874 19.0625 15.2312C19.0625 17.4749 17.2438 19.2937 15 19.2937Z" fill="#1DA1F2"/>
</svg>
