<svg width="19" height="19" viewBox="0 0 19 19" fill="none" xmlns="http://www.w3.org/2000/svg">
<path d="M9.49999 11.3326C7.84699 11.3326 6.50195 9.98838 6.50195 8.33538C6.50195 6.68238 7.84779 5.33575 9.49999 5.33575C11.1522 5.33575 12.498 6.68159 12.498 8.3338C12.498 9.986 11.1522 11.3303 9.49999 11.3303V11.3326ZM9.49999 6.52484C8.50249 6.52484 7.68945 7.33709 7.68945 8.33538C7.68945 9.33367 8.50249 10.1443 9.49999 10.1443C10.4975 10.1443 11.3105 9.33288 11.3105 8.33459C11.3105 7.3363 10.4975 6.52325 9.49999 6.52325V6.52484Z" fill="#5B7083"/>
<path d="M16.3811 8.4629C16.3811 4.67081 13.2936 1.58331 9.49994 1.58331C5.70627 1.58331 2.61877 4.67081 2.61877 8.4629C2.61877 9.96865 3.09615 11.3984 3.99865 12.5978L4.00102 12.5962L4.00657 12.6081C5.2954 14.2468 8.97665 17.1657 9.13261 17.2884C9.24186 17.3755 9.37169 17.4174 9.50073 17.4174C9.62978 17.4174 9.75961 17.3755 9.86886 17.2892C10.0248 17.1665 13.7061 14.2492 14.9949 12.6089L15.0004 12.5978L15.002 12.5994C15.9045 11.3992 16.3811 9.97102 16.3811 8.46448V8.4629ZM9.49994 16.0629C8.53094 15.2791 5.92161 13.1219 4.94311 11.8789C4.19894 10.8894 3.80627 9.70819 3.80627 8.46527C3.80627 5.32552 6.36098 2.77081 9.49994 2.77081C12.6389 2.77081 15.1936 5.32473 15.1936 8.4629C15.1936 9.70581 14.8001 10.887 14.0568 11.8774C13.0783 13.1203 10.4689 15.2768 9.49994 16.0613V16.0629Z" fill="#5B7083"/>
</svg>
